<svg width="120" height="120" viewBox="0 0 120 120" fill="none" xmlns="http://www.w3.org/2000/svg">
  <rect width="120" height="120" rx="16" fill="#ECFDF5"/>
  <path d="M59.7 27C52.0433 27 44.6885 30.1607 39.275 35.575C33.8607 40.9885 30.7 48.3433 30.7 56C30.7 63.6567 33.8607 71.0115 39.275 76.425C44.6885 81.8393 52.0433 85 59.7 85V27Z" fill="#10B981" fill-opacity="0.2"/>
  <path d="M59.7 27V85C67.3567 85 74.7115 81.8393 80.125 76.425C85.5393 71.0115 88.7 63.6567 88.7 56C88.7 48.3433 85.5393 40.9885 80.125 35.575C74.7115 30.1607 67.3567 27 59.7 27Z" fill="#10B981" fill-opacity="0.2"/>
  <path d="M59.7 27C52.0433 27 44.6885 30.1607 39.275 35.575C33.8607 40.9885 30.7 48.3433 30.7 56C30.7 63.6567 33.8607 71.0115 39.275 76.425C44.6885 81.8393 52.0433 85 59.7 85M59.7 27V85M59.7 27C67.3567 27 74.7115 30.1607 80.125 35.575C85.5393 40.9885 88.7 48.3433 88.7 56C88.7 63.6567 85.5393 71.0115 80.125 76.425C74.7115 81.8393 67.3567 85 59.7 85" stroke="#10B981" stroke-width="3" stroke-linecap="round" stroke-linejoin="round"/>
  <path d="M45.2 56C45.2 58.3869 46.1482 60.6761 47.8361 62.3639C49.5239 64.0518 51.8131 65 54.2 65C56.5869 65 58.8761 64.0518 60.5639 62.3639C62.2518 60.6761 63.2 58.3869 63.2 56C63.2 53.6131 62.2518 51.3239 60.5639 49.6361C58.8761 47.9482 56.5869 47 54.2 47C51.8131 47 49.5239 47.9482 47.8361 49.6361C46.1482 51.3239 45.2 53.6131 45.2 56Z" fill="#10B981" stroke="#10B981" stroke-width="2"/>
  <path d="M74.2 47L74.2 65" stroke="#10B981" stroke-width="5" stroke-linecap="round"/>
</svg>