<svg width="120" height="120" viewBox="0 0 120 120" fill="none" xmlns="http://www.w3.org/2000/svg">
  <rect width="120" height="120" rx="16" fill="#FDF2F8"/>
  <path d="M50 27L61 38M61 38L50 49M61 38H36" stroke="#EC4899" stroke-width="4" stroke-linecap="round" stroke-linejoin="round"/>
  <path d="M70 74L59 63M59 63L70 52M59 63H84" stroke="#EC4899" stroke-width="4" stroke-linecap="round" stroke-linejoin="round"/>
  <path d="M30 63C30 78.464 42.536 91 58 91C66.3776 91 73.9973 87.6114 79.4264 82.1822C84.8554 76.7531 88.2439 69.1334 88.2439 60.7558C88.2439 52.3781 84.8554 44.7584 79.4264 39.3293C73.9973 33.9001 66.3776 30.5116 58 30.5116" stroke="#EC4899" stroke-width="4" stroke-linecap="round"/>
  <path d="M68.2439 35.5116C67.0493 35.1767 65.8023 34.9487 64.5183 34.8356C63.2344 34.7224 61.9313 34.7252 60.6479 34.8437C59.3646 34.9623 58.119 35.1956 56.9264 35.5355C55.7337 35.8754 54.6015 36.3192 53.5526 36.8579C52.5037 37.3966 51.5439 38.0263 50.6936 38.736C49.8432 39.4457 49.109 40.2318 48.5072 41.0788C47.9053 41.9258 47.4405 42.8284 47.1229 43.7694C46.8052 44.7103 46.6371 45.6827 46.6218 46.6649" stroke="#EC4899" stroke-width="4" stroke-linecap="round"/>
</svg>