<svg width="120" height="120" viewBox="0 0 120 120" fill="none" xmlns="http://www.w3.org/2000/svg">
  <rect width="120" height="120" rx="16" fill="#EFF6FF"/>
  <path d="M60 26C41.775 26 27 40.775 27 59C27 77.225 41.775 92 60 92C78.225 92 93 77.225 93 59C93 40.775 78.225 26 60 26ZM60 85.8333C45.175 85.8333 33.1667 73.825 33.1667 59C33.1667 44.175 45.175 32.1667 60 32.1667C74.825 32.1667 86.8333 44.175 86.8333 59C86.8333 73.825 74.825 85.8333 60 85.8333Z" fill="#2563EB"/>
  <path d="M60 38.333C48.5917 38.333 39.333 47.5917 39.333 59C39.333 70.4083 48.5917 79.6667 60 79.6667C71.4083 79.6667 80.6667 70.4083 80.6667 59C80.6667 47.5917 71.4083 38.333 60 38.333ZM60 73.5C52.0583 73.5 45.5 66.9417 45.5 59C45.5 51.0583 52.0583 44.5 60 44.5C67.9417 44.5 74.5 51.0583 74.5 59C74.5 66.9417 67.9417 73.5 60 73.5Z" fill="#2563EB"/>
  <path d="M60 52.8333C56.5042 52.8333 53.6667 55.6708 53.6667 59.1667C53.6667 62.6625 56.5042 65.5 60 65.5C63.4958 65.5 66.3333 62.6625 66.3333 59.1667C66.3333 55.6708 63.4958 52.8333 60 52.8333Z" fill="#2563EB"/>
  <path d="M64.5 26H55.5V38.3333H64.5V26Z" fill="#2563EB"/>
  <path d="M64.5 79.6667H55.5V92H64.5V79.6667Z" fill="#2563EB"/>
  <path d="M92 55.5H79.6667V64.5H92V55.5Z" fill="#2563EB"/>
  <path d="M40.3333 55.5H28V64.5H40.3333V55.5Z" fill="#2563EB"/>
</svg>